# xmcd
#
# Track frame offsets:
#	150
#	12858
#	26672
#	46019
#	62438
#	79344
#	97778
#	116113
#	135696
#	155994
#
# Disc length: 2213 seconds
#
# Revision: 1
# Processed by: cddbd v1.5.2PL0 Copyright (c) Steve Scherf et al.
# Submitted via: audiograbber 1.83.01
#
DISCID=7908a30a
DTITLE=Anne Murray - Inspirational Classics
DYEAR=1999
DGENRE=Gospel
TTITLE0=Put A Little In Your Heart
TTITLE1=I Can See Clearly Now
TTITLE2=Just A Closer Walk With Thee - Take My Hand Lord Jesus
TTITLE3=How Great thou Art
TTITLE4=Amazing Grace
TTITLE5=The Old Rugged Cross
TTITLE6=Softly And Tenderly
TTITLE7=In The Garden
TTITLE8=Bridge Over Troubled Water
TTITLE9=The Lord's Prayer
EXTD=
EXTT0=
EXTT1=
EXTT2=
EXTT3=
EXTT4=
EXTT5=
EXTT6=
EXTT7=
EXTT8=
EXTT9=
PLAYORDER=
